<svg width="92.553528" height="103.026611" viewBox="0 0 92.5535 103.027" fill="none" xmlns="http://www.w3.org/2000/svg" xmlns:xlink="http://www.w3.org/1999/xlink">
	<desc>
			Created with Pixso.
	</desc>
	<defs/>
	<path id="周" d="M116.82 47.21Q116.05 39.58 115.34 33.11Q114.78 28.05 114.11 22.74Q113.48 17.4 111.79 12.93Q110.61 9.73 108.61 7.16Q107.82 6.15 106.91 5.23Q103.67 2 97.76 0.98Q91.44 0 84.65 0Q83.59 0 82.54 0.03Q76.85 0.19 71.19 1.23Q66.36 2.09 61.72 3.54Q59.94 4.1 58.18 4.74Q51.85 7.03 46.51 10.51Q46.01 10.81 45.8 11.25Q45.53 11.83 45.77 12.65Q45.98 13.32 46.44 13.62Q46.96 13.96 47.81 13.81Q57.72 11.77 67.42 9.7Q77.16 7.62 87.53 7.62Q95.34 7.62 99.35 10.86Q100.73 11.96 101.84 13.29Q104 15.84 105.18 19.23Q106.98 24.32 107.12 30.58Q107.29 36.84 107.29 42.89L107.29 43.31Q105.99 42.85 104.64 42.57Q102.26 42.07 99.77 42.11Q95.9 42.18 91.93 42.85Q87.99 43.48 84.02 44.19Q80.05 44.89 76.18 44.89Q76.46 43.76 76.46 42.53Q76.46 41.3 76.6 40Q81.8 40.28 86.55 39.09Q88.79 38.51 90.62 37.3Q92.66 35.95 94.18 33.82Q94.83 32.87 94.88 31.9Q94.88 31.82 94.88 31.74Q94.88 30.74 94.53 29.89Q94.49 29.81 94.46 29.74Q94.4 29.59 94.32 29.46Q93.9 28.68 93.16 28.08Q92.7 27.69 92.2 27.37Q91.77 27.1 91.3 26.89Q90.48 26.56 89.63 26.34Q86.91 25.63 83.88 26.12Q79.91 26.75 76.04 27.35Q75.72 24.46 75.3 21.51Q75 19.43 74.55 17.38Q74.36 16.52 74.14 15.67Q73.83 14.89 73.31 14.7Q72.87 14.54 72.28 14.8Q70.79 15.62 69.81 16.85Q68.7 18.24 68.23 20.14Q67.39 23.73 66.97 27.21Q64.65 26.75 61.62 26.19Q58.6 25.62 55.86 25.13Q53.12 24.6 51.25 24.25Q49.51 23.89 49.4 24.02Q49.49 23.77 49.48 23.53Q49.46 23.06 49.07 22.6Q48.77 22.21 48.4 22.1Q48.06 22.01 47.67 22.14L47.21 22.28Q46.94 22.33 46.72 22.47Q46.28 22.75 46.08 23.44Q45.9 24.22 45.96 24.97Q46.1 26.61 47.42 28.16Q49.39 30.37 52.27 32.23Q55.16 34.1 58.25 35.4Q61.34 36.7 63.07 37.26L64.51 37.72Q64.23 39.3 63.91 40.81Q63.63 42.32 63.63 43.76Q57.9 42.89 52.41 41.58Q46.93 40.28 40.88 39.16Q41.62 33.67 42.11 28.16Q42.51 23.66 41.27 19.67Q40.98 18.73 40.6 17.82Q40.42 17.39 40.09 17.2Q39.67 16.96 39.02 17.12Q36.88 17.68 35.23 18.9Q33.88 19.91 32.87 21.37Q30.65 24.6 29.35 28.65Q28.08 32.66 27.56 36.91Q27.07 41.16 26.64 44.33Q26.05 48.93 25.62 53.92Q25.34 57.23 25.34 60.53Q25.34 62.19 25.41 63.84Q25.57 67.51 26.11 71.13Q26.3 72.39 26.54 73.65Q27.19 76.95 28.41 80.01Q28.98 81.42 29.67 82.79Q30.79 85.03 32.55 85.78Q33.05 86 33.6 86.09Q35.08 86.34 36.45 86.06Q37.43 85.86 38.35 85.39Q38.68 85.22 38.99 85.02Q40.8 83.86 41.97 81.7Q42.57 80.59 42.77 79.41Q43.02 77.9 42.6 76.28L42.78 76.42Q42.6 75.96 42.43 75.49Q39.9 68.58 39.9 60.75Q39.9 52.38 40.46 44.61Q42.38 46.15 44.43 47.48Q50.25 51.25 57.16 53.33Q66.51 56.14 75.58 56.84Q79.34 57.16 83.67 57.3Q87.99 57.44 92.21 56.95Q96.46 56.42 100.33 55.05Q103.14 54.06 105.42 52.37Q106.31 51.71 107.12 50.94Q107.12 54.98 107.05 59.23Q106.98 63.49 106.62 67.67Q106.27 71.82 105.46 75.65Q104.69 79.48 103.25 82.65Q101.95 85.35 100.44 86.51Q98.92 87.67 97.34 88.34Q95.76 88.98 94.18 89.78Q92.6 90.56 91.3 92.42Q90.93 92.91 90.74 93.46Q90.48 94.22 90.56 95.09Q90.69 96.5 91.34 97.6Q91.39 97.68 91.44 97.76Q93.6 101.69 96.67 102.62Q96.85 102.68 97.03 102.72Q98.35 103.04 99.66 103.02Q101.67 102.99 103.67 102.16Q106.98 100.79 109.79 97.91Q112.6 95.02 113.9 91.72Q116.5 85.53 117.28 77.97Q118.09 70.38 117.84 62.61Q117.63 54.84 116.82 47.21ZM82.86 61.27Q80.05 60.32 77.48 59.87Q76.18 59.73 74.14 59.58Q72.14 59.44 69.89 59.66Q67.67 59.87 65.42 60.32Q63.21 60.75 61.48 61.62Q61.34 61.17 61.2 60.89L60.92 60.32Q60.53 59.63 59.94 59.33Q59.41 59.06 58.74 59.09Q58.01 59.13 57.43 59.45Q56.87 59.75 56.46 60.32Q56 60.86 55.63 61.46Q54.34 63.52 54.07 66.23Q53.71 69.67 53.85 72.7Q53.85 75.72 54.42 78.53Q54.68 79.79 55.15 80.97Q55.72 82.43 56.6 83.77Q56.74 84.37 56.88 84.79Q57.02 85.21 57.16 85.53Q57.78 86.82 58.73 87.79Q59.77 88.86 61.2 89.54Q63.94 90.84 67.18 91.12Q68.47 91.23 69.77 91.23Q71.71 91.23 73.65 90.98Q76.88 90.56 79.34 89.68Q81.94 88.83 84.51 87.32Q86.79 86 88.67 84.24Q88.93 83.99 89.19 83.74Q90.54 82.38 91.52 80.79Q92.07 79.91 92.49 78.96Q92.71 78.49 92.88 78Q93.7 75.73 93.58 73.12Q93.47 70.78 92.5 68.88Q92.22 68.33 91.86 67.81Q91.25 66.92 90.53 66.12Q89.38 64.85 87.96 63.84Q87.91 63.81 87.87 63.78Q85.62 62.17 82.86 61.27ZM82.33 72.2Q82.58 73.28 81.35 74.7Q79.76 76.42 78.04 77.16Q77.66 77.32 77.28 77.45Q75.9 77.9 74.42 78.04Q72.56 78.18 70.55 77.83Q68.55 77.44 66.65 77.16Q66.09 75.44 65.42 73.79Q64.79 72.14 64.23 70.38Q63.63 69.11 63.21 67.07Q65.95 67.35 69.82 67.74Q73.72 68.09 76.95 68.97Q80.19 69.82 81.7 71.19Q82.21 71.65 82.33 72.2Z" fill="#AB1010" fill-opacity="1.000000" fill-rule="evenodd"/>
</svg>
